<?xml version="1.0" encoding="UTF-8"?>
<svg version="1.1" xmlns="http://www.w3.org/2000/svg" width="256" height="256">
<path d="M0 0 C84.48 0 168.96 0 256 0 C256 84.48 256 168.96 256 256 C171.52 256 87.04 256 0 256 C0 171.52 0 87.04 0 0 Z " fill="#4A2D0C" transform="translate(0,0)"/>
<path d="M0 0 C3.63 0 7.26 0 11 0 C12.39966833 4.69888653 13.52287169 9.36155625 14.4375 14.1796875 C14.623125 14.78039062 14.80875 15.38109375 15 16 C15.66 16.33 16.32 16.66 17 17 C19.39073445 13.17482487 19.55966552 9.40334476 20 5 C20.66 5 21.32 5 22 5 C22 3.35 22 1.7 22 0 C25.3 0 28.6 0 32 0 C32 15.18 32 30.36 32 46 C30.35 46 28.7 46 27 46 C26.67 33.46 26.34 20.92 26 8 C24.2969132 9.7030868 24.40464252 12.02300901 24.02734375 14.34765625 C23.85009766 15.42724609 23.67285156 16.50683594 23.49023438 17.61914062 C23.30783203 18.75544922 23.12542969 19.89175781 22.9375 21.0625 C22.75123047 22.20267578 22.56496094 23.34285156 22.37304688 24.51757812 C21.91175247 27.34448489 21.45424262 30.17195299 21 33 C17.535 33.495 17.535 33.495 14 34 C13.67 31.03 13.34 28.06 13 25 C12.34 25 11.68 25 11 25 C10.49490792 22.75113762 9.99610821 20.50086131 9.5 18.25 C9.2215625 16.99703125 8.943125 15.7440625 8.65625 14.453125 C8 11 8 11 8 7 C7.34 7 6.68 7 6 7 C6 19.87 6 32.74 6 46 C4.02 46 2.04 46 0 46 C0 30.82 0 15.64 0 0 Z " fill="#C7BDB3" transform="translate(88,105)"/>
<path d="M0 0 C0.77085937 0.03222656 1.54171875 0.06445312 2.3359375 0.09765625 C5.91423646 1.41051338 6.82958467 3.64606056 8.625 6.9375 C8.96174287 9.75708784 9.09676343 12.15976174 9.015625 14.9609375 C9.00996521 15.70711334 9.00430542 16.45328918 8.99847412 17.22207642 C8.97622898 19.58622637 8.92605984 21.94881459 8.875 24.3125 C8.85491944 25.92315507 8.8366714 27.53383409 8.8203125 29.14453125 C8.77640381 33.07611507 8.70746318 37.00654352 8.625 40.9375 C7.965 40.9375 7.305 40.9375 6.625 40.9375 C6.295 42.5875 5.965 44.2375 5.625 45.9375 C4.04090006 45.82262252 2.45771037 45.69515492 0.875 45.5625 C-0.00671875 45.49289063 -0.8884375 45.42328125 -1.796875 45.3515625 C-5.64387893 44.73371035 -7.60759617 43.97160617 -9.96191406 40.79907227 C-12.46069877 35.73890371 -11.89377362 30.18078333 -11.87597656 24.64526367 C-11.87500404 22.50888284 -11.91666071 20.3760974 -11.9609375 18.24023438 C-12.06000673 6.83572658 -12.06000673 6.83572658 -8.96875 3.02734375 C-5.63717235 0.34301537 -4.19251313 -0.27160799 0 0 Z " fill="#E0DBD5" transform="translate(138.375,105.0625)"/>
<path d="M0 0 C16.15032231 -0.02254711 32.30063126 -0.04097922 48.45096493 -0.05181217 C55.94933064 -0.05697511 63.44768591 -0.06401776 70.94604492 -0.07543945 C77.47930504 -0.08538637 84.01255759 -0.09185344 90.54582506 -0.09408849 C94.00721807 -0.09539559 97.46858942 -0.09848136 100.92997551 -0.10573006 C104.78787527 -0.11374407 108.64575357 -0.11399113 112.50366211 -0.11352539 C114.23750656 -0.1189183 114.23750656 -0.1189183 116.00637817 -0.12442017 C117.05110794 -0.1230455 118.09583771 -0.12167084 119.17222595 -0.12025452 C120.54247122 -0.12163721 120.54247122 -0.12163721 121.94039822 -0.12304783 C124 0 124 0 125 1 C125.09319449 2.5348297 125.117458 4.07392082 125.11352539 5.61157227 C125.11341209 7.08298424 125.11341209 7.08298424 125.11329651 8.5841217 C125.10813522 9.6507756 125.10297394 10.7174295 125.09765625 11.81640625 C125.0962413 12.9025975 125.09482635 13.98878876 125.09336853 15.1078949 C125.08775048 18.59279075 125.07519492 22.07762342 125.0625 25.5625 C125.05748733 27.91861887 125.05292402 30.27473874 125.04882812 32.63085938 C125.03777519 38.42059464 125.02101951 44.21029281 125 50 C124.01 50 123.02 50 122 50 C122 34.82 122 19.64 122 4 C82.4 4 42.8 4 2 4 C2 18.85 2 33.7 2 49 C1.34 49 0.68 49 0 49 C0 32.83 0 16.66 0 0 Z " fill="#E0DBD5" transform="translate(60,30)"/>
<path d="M0 0 C0.99 0 1.98 0 3 0 C3 15.18 3 30.36 3 46 C42.27 46 81.54 46 122 46 C122 30.82 122 15.64 122 0 C122.99 0 123.98 0 125 0 C125 16.17 125 32.34 125 49 C108.84967769 49.02254711 92.69936874 49.04097922 76.54903507 49.05181217 C69.05066936 49.05697511 61.55231409 49.06401776 54.05395508 49.07543945 C47.52069496 49.08538637 40.98744241 49.09185344 34.45417494 49.09408849 C30.99278193 49.09539559 27.53141058 49.09848136 24.07002449 49.10573006 C20.21212473 49.11374407 16.35424643 49.11399113 12.49633789 49.11352539 C11.34044159 49.11712067 10.18454529 49.12071594 8.99362183 49.12442017 C7.94889206 49.1230455 6.90416229 49.12167084 5.82777405 49.12025452 C4.45752878 49.12163721 4.45752878 49.12163721 3.05960178 49.12304783 C1 49 1 49 0 48 C-0.09311889 46.49581261 -0.11746028 44.98728644 -0.11352539 43.48022461 C-0.11344986 42.51930405 -0.11337433 41.55838348 -0.11329651 40.56834412 C-0.10813522 39.523564 -0.10297394 38.47878387 -0.09765625 37.40234375 C-0.0962413 36.33834854 -0.09482635 35.27435333 -0.09336853 34.17811584 C-0.08775064 30.76454917 -0.07519511 27.351047 -0.0625 23.9375 C-0.05748731 21.62955824 -0.052924 19.32161545 -0.04882812 17.01367188 C-0.0377754 11.34242574 -0.02101987 5.67121747 0 0 Z " fill="#E8E4E0" transform="translate(60,175)"/>
<path d="M0 0 C0.99 0.103125 1.98 0.20625 3 0.3125 C5.32891212 3.80586818 5.23551143 5.17257865 5.1953125 9.29296875 C5.18564453 11.03803711 5.18564453 11.03803711 5.17578125 12.81835938 C5.15902344 14.03330078 5.14226562 15.24824219 5.125 16.5 C5.11597656 17.72654297 5.10695312 18.95308594 5.09765625 20.21679688 C5.07406017 23.24889295 5.04113841 26.28059938 5 29.3125 C3.35 29.3125 1.7 29.3125 0 29.3125 C-0.495 31.7875 -0.495 31.7875 -1 34.3125 C-2.32 33.6525 -3.64 32.9925 -5 32.3125 C-5.04938628 28.07667673 -5.08571263 23.84100535 -5.10986328 19.60498047 C-5.11992963 18.16354453 -5.1335838 16.72212905 -5.15087891 15.28076172 C-5.17510012 13.21056066 -5.18647641 11.14062924 -5.1953125 9.0703125 C-5.20578613 7.8239502 -5.21625977 6.57758789 -5.22705078 5.29345703 C-4.91287931 1.16868972 -4.10092444 0.42717963 0 0 Z " fill="#55391B" transform="translate(137,110.6875)"/>
<path d="M0 0 C3.3 0 6.6 0 10 0 C10 15.18 10 30.36 10 46 C8.35 46 6.7 46 5 46 C4.67 33.46 4.34 20.92 4 8 C3.34 9.65 2.68 11.3 2 13 C1.01 13 0.02 13 -1 13 C-0.67 8.71 -0.34 4.42 0 0 Z " fill="#E3DED9" transform="translate(110,105)"/>
<path d="M0 0 C2.97 0 5.94 0 9 0 C9.66 2.97 10.32 5.94 11 9 C9.68 8.67 8.36 8.34 7 8 C7 7.01 7 6.02 7 5 C6.01 5 5.02 5 4 5 C4 17.87 4 30.74 4 44 C2.68 44 1.36 44 0 44 C0 29.48 0 14.96 0 0 Z " fill="#FBFBFA" transform="translate(89,106)"/>
<path d="M0 0 C0.66 0 1.32 0 2 0 C2 15.84 2 31.68 2 48 C1.01 48 0.02 48 -1 48 C-0.67 32.16 -0.34 16.32 0 0 Z " fill="#EEEBE8" transform="translate(182,175)"/>
<path d="M0 0 C2.97 0 5.94 0 9 0 C9 0.33 9 0.66 9 1 C7.02 1.33 5.04 1.66 3 2 C2.67 15.53 2.34 29.06 2 43 C1.01 43.495 1.01 43.495 0 44 C0 29.48 0 14.96 0 0 Z " fill="#DCD6D0" transform="translate(89,106)"/>
<path d="M0 0 C0.66 0 1.32 0 2 0 C1.67 2.64 1.34 5.28 1 8 C1.99 8 2.98 8 4 8 C3.45136137 14.7857936 2.45732062 21.35009036 1 28 C0.34 28 -0.32 28 -1 28 C-0.125 20.375 -0.125 20.375 1 17 C1.03954234 14.66700175 1.04401732 12.33291811 1 10 C-0.32 12.31 -1.64 14.62 -3 17 C-3.66 16.67 -4.32 16.34 -5 16 C-4.56109595 13.54213734 -4.14539053 12.16962228 -2.5 10.25 C-0.29065625 6.93598437 -0.32885089 3.94621066 0 0 Z " fill="#ADA091" transform="translate(108,110)"/>
<path d="M0 0 C1.95273962 2.92910944 2.75396363 5.08132291 3.6875 8.4375 C3.95949219 9.38496094 4.23148437 10.33242187 4.51171875 11.30859375 C4.99803744 13.98918237 4.89369149 15.46287583 4 18 C3.67 17.67 3.34 17.34 3 17 C2.67 18.98 2.34 20.96 2 23 C1.67 23 1.34 23 1 23 C0.01 17.72 -0.98 12.44 -2 7 C-1.01 7 -0.02 7 1 7 C0.67 4.69 0.34 2.38 0 0 Z " fill="#DFDAD5" transform="translate(98,107)"/>
<path d="M0 0 C0.33 0 0.66 0 1 0 C1 11.22 1 22.44 1 34 C0.67 34 0.34 34 0 34 C-0.03758423 32.98631348 -0.03758423 32.98631348 -0.07592773 31.95214844 C-0.19210742 28.8845832 -0.31473437 25.81730842 -0.4375 22.75 C-0.47681641 21.68652344 -0.51613281 20.62304688 -0.55664062 19.52734375 C-0.59853516 18.50253906 -0.64042969 17.47773438 -0.68359375 16.421875 C-0.72025146 15.47924805 -0.75690918 14.53662109 -0.79467773 13.56542969 C-0.91535095 11.05100946 -0.91535095 11.05100946 -1.57836914 8.89550781 C-2.28388403 5.7237547 -0.98588128 3.01563687 0 0 Z " fill="#4D3111" transform="translate(113,115)"/>
<path d="M0 0 C0.33 0 0.66 0 1 0 C1.33 2.97 1.66 5.94 2 9 C1.34 8.67 0.68 8.34 0 8 C-0.33 9.98 -0.66 11.96 -1 14 C-1.33 14 -1.66 14 -2 14 C-2.19491452 12.54263913 -2.38069358 11.08405407 -2.5625 9.625 C-2.66691406 8.81289062 -2.77132812 8.00078125 -2.87890625 7.1640625 C-3 5 -3 5 -2 3 C-1.34 3 -0.68 3 0 3 C0 2.01 0 1.02 0 0 Z " fill="#D7D0C9" transform="translate(101,116)"/>
<path d="M0 0 C0.33 0 0.66 0 1 0 C1 3.3 1 6.6 1 10 C0.01 10.33 -0.98 10.66 -2 11 C-1.125 3.375 -1.125 3.375 0 0 Z " fill="#583D1F" transform="translate(113,115)"/>
</svg>
